# xmcd
#
# Track frame offsets:
#   150
#   15472
#   35425
#   51825
#   64434
#   76502
#   88223
#   102159
#   115334
#   131570
#   146658
#   163617
#
# Disc length: 2388 seconds
#
# Revision: 0
# Processed by: cddbd v1.5.1PL0 Copyright (c) Steve Scherf et al.
# Submitted via: uFREEDB ActiveX Control 1.5
#
DISCID=9c09520c
DTITLE=Vaerios - Top Portugal - Longe de Ti
DYEAR=1900
DGENRE=Alternative
TTITLE0=Miguel e André - vem salvar m coração
TTITLE1=José Malhoa - uma rosa e um beijo 
TTITLE2=Candida Branca Flor - partites na aventura
TTITLE3=Luis Manuel - azar no amor
TTITLE4=Ilda de Castro - nunca mais na vida 
TTITLE5=Clemente - tu,só tu
TTITLE6=Marante - mãe
TTITLE7=Nueza - mais de metade de mim
TTITLE8=Candido - laura
TTITLE9=Ricardo José - dá-me mais uma chance
TTITLE10=Gr. Mus. Albatroz - temporal de amor
TTITLE11=Est. Univer. de lisboa - regresso
EXTD=
EXTT0=
EXTT1=
EXTT2=
EXTT3=
EXTT4=
EXTT5=
EXTT6=
EXTT7=
EXTT8=
EXTT9=
EXTT10=
EXTT11=
PLAYORDER=
